<?xml version="1.0" standalone="no"?>
<!DOCTYPE svg PUBLIC "-//W3C//DTD SVG 20010904//EN"
 "http://www.w3.org/TR/2001/REC-SVG-20010904/DTD/svg10.dtd">
<svg version="1.0" xmlns="http://www.w3.org/2000/svg"
 width="800.000000pt" height="600.000000pt" viewBox="0 0 800.000000 600.000000"
 preserveAspectRatio="xMidYMid meet">

<g transform="translate(0.000000,600.000000) scale(0.100000,-0.100000)"
fill="#fff" stroke="none">
<path d="M147 5868 c-21 -11 -22 -31 -3 -47 20 -16 46 -3 46 24 0 27 -19 37
-43 23z"/>
<path d="M476 5864 c-17 -16 -12 -40 9 -48 19 -7 46 20 39 39 -8 21 -32 26
-48 9z"/>
<path d="M813 5873 c-19 -7 -16 -50 3 -57 19 -7 44 10 44 30 0 16 -30 33 -47
27z"/>
<path d="M1142 5868 c-16 -16 -15 -33 3 -48 12 -10 18 -10 30 0 20 17 19 37
-3 49 -13 7 -23 6 -30 -1z"/>
<path d="M1477 5868 c-21 -11 -22 -31 -3 -47 20 -16 46 -3 46 24 0 27 -19 37
-43 23z"/>
<path d="M1806 5864 c-17 -16 -12 -40 9 -48 19 -7 46 20 39 39 -8 21 -32 26
-48 9z"/>
<path d="M2143 5873 c-19 -7 -16 -50 3 -57 19 -7 44 10 44 30 0 16 -30 33 -47
27z"/>
<path d="M2472 5868 c-16 -16 -15 -33 3 -48 12 -10 18 -10 30 0 20 17 19 37
-3 49 -13 7 -23 6 -30 -1z"/>
<path d="M2807 5868 c-21 -11 -22 -31 -3 -47 20 -16 46 -3 46 24 0 27 -19 37
-43 23z"/>
<path d="M3137 5868 c-21 -11 -21 -22 -2 -42 20 -20 45 -10 45 19 0 27 -19 37
-43 23z"/>
<path d="M134 5535 c-4 -9 0 -23 9 -32 21 -21 49 -9 45 19 -4 28 -45 38 -54
13z"/>
<path d="M466 5534 c-7 -19 10 -44 30 -44 16 0 33 30 27 48 -7 18 -50 15 -57
-4z"/>
<path d="M800 5525 c0 -31 26 -43 47 -22 21 21 9 47 -22 47 -20 0 -25 -5 -25
-25z"/>
<path d="M1137 5544 c-12 -13 -8 -42 8 -48 25 -9 46 5 43 28 -3 21 -37 34 -51
20z"/>
<path d="M1464 5535 c-4 -9 0 -23 8 -31 20 -20 50 -7 46 20 -4 26 -45 35 -54
11z"/>
<path d="M1796 5534 c-7 -19 10 -44 30 -44 16 0 33 30 27 48 -7 18 -50 15 -57
-4z"/>
<path d="M2130 5525 c0 -31 26 -43 47 -22 21 21 9 47 -22 47 -20 0 -25 -5 -25
-25z"/>
<path d="M2467 5543 c-13 -12 -7 -41 10 -47 21 -8 48 17 40 38 -6 16 -38 22
-50 9z"/>
<path d="M2794 5535 c-4 -9 0 -23 8 -31 20 -20 50 -7 46 20 -4 26 -45 35 -54
11z"/>
<path d="M3126 5533 c-8 -21 17 -48 38 -40 9 4 16 18 16 32 0 20 -5 25 -24 25
-13 0 -27 -8 -30 -17z"/>
<path d="M134 5215 c-4 -9 0 -23 9 -32 21 -21 49 -9 45 19 -4 28 -45 38 -54
13z"/>
<path d="M466 5214 c-7 -19 10 -44 29 -44 7 0 18 7 25 15 10 12 10 18 0 30
-16 20 -46 19 -54 -1z"/>
<path d="M804 5215 c-8 -21 2 -45 19 -45 20 0 40 27 33 45 -7 19 -45 20 -52 0z"/>
<path d="M1134 5216 c-10 -26 4 -48 28 -44 17 2 23 10 23 28 0 18 -6 26 -23
28 -13 2 -25 -3 -28 -12z"/>
<path d="M1464 5215 c-4 -9 0 -23 9 -32 21 -21 49 -9 45 19 -4 28 -45 38 -54
13z"/>
<path d="M1796 5214 c-7 -19 10 -44 29 -44 7 0 18 7 25 15 10 12 10 18 0 30
-16 20 -46 19 -54 -1z"/>
<path d="M2134 5215 c-8 -21 2 -45 19 -45 20 0 40 27 33 45 -7 19 -45 20 -52
0z"/>
<path d="M2464 5216 c-10 -26 4 -48 28 -44 17 2 23 10 23 28 0 18 -6 26 -23
28 -13 2 -25 -3 -28 -12z"/>
<path d="M2797 5224 c-14 -15 -6 -43 14 -49 25 -8 42 6 37 31 -3 19 -38 31
-51 18z"/>
<path d="M3126 5214 c-9 -22 17 -49 39 -40 10 3 15 15 13 28 -4 29 -42 37 -52
12z"/>
<path d="M140 4896 c-18 -22 -5 -48 22 -44 17 2 23 10 23 28 0 29 -26 38 -45
16z"/>
<path d="M470 4895 c-10 -12 -10 -18 0 -30 7 -8 18 -15 25 -15 7 0 18 7 25 15
10 12 10 18 0 30 -7 8 -18 15 -25 15 -7 0 -18 -7 -25 -15z"/>
<path d="M804 4895 c-9 -23 3 -45 26 -45 25 0 37 25 20 45 -16 19 -39 19 -46
0z"/>
<path d="M1134 4896 c-10 -26 4 -48 28 -44 17 2 23 10 23 28 0 18 -6 26 -23
28 -13 2 -25 -3 -28 -12z"/>
<path d="M1472 4901 c-23 -14 -10 -46 18 -46 20 0 25 5 25 25 0 26 -20 36 -43
21z"/>
<path d="M1800 4895 c-10 -12 -10 -18 0 -30 7 -8 18 -15 25 -15 7 0 18 7 25
15 10 12 10 18 0 30 -7 8 -18 15 -25 15 -7 0 -18 -7 -25 -15z"/>
<path d="M2134 4895 c-9 -23 3 -45 26 -45 25 0 37 25 20 45 -16 19 -39 19 -46
0z"/>
<path d="M2464 4896 c-10 -26 4 -48 28 -44 17 2 23 10 23 28 0 18 -6 26 -23
28 -13 2 -25 -3 -28 -12z"/>
<path d="M2794 4896 c-10 -26 4 -48 28 -44 17 2 23 10 23 28 0 18 -6 26 -23
28 -13 2 -25 -3 -28 -12z"/>
<path d="M3131 4897 c-17 -21 -3 -49 23 -45 15 2 21 10 21 28 0 28 -26 38 -44
17z"/>
<path d="M140 4576 c-18 -22 -5 -48 22 -44 17 2 23 10 23 28 0 29 -26 38 -45
16z"/>
<path d="M471 4576 c-16 -20 -3 -46 24 -46 13 0 26 7 29 16 7 19 -10 44 -29
44 -7 0 -18 -6 -24 -14z"/>
<path d="M804 4575 c-9 -23 3 -45 26 -45 25 0 37 25 20 45 -16 19 -39 19 -46
0z"/>
<path d="M1142 4581 c-23 -14 -10 -46 18 -46 16 0 26 6 28 19 3 16 -12 36 -28
36 -3 0 -11 -4 -18 -9z"/>
<path d="M1470 4576 c-18 -22 -5 -48 22 -44 17 2 23 10 23 28 0 29 -26 38 -45
16z"/>
<path d="M1801 4576 c-16 -20 -3 -46 24 -46 27 0 36 17 23 43 -10 20 -31 22
-47 3z"/>
<path d="M2134 4575 c-9 -23 3 -45 26 -45 25 0 37 25 20 45 -16 19 -39 19 -46
0z"/>
<path d="M2472 4581 c-23 -14 -10 -46 18 -46 16 0 26 6 28 19 3 16 -12 36 -28
36 -3 0 -11 -4 -18 -9z"/>
<path d="M2800 4576 c-18 -22 -5 -48 22 -44 17 2 23 10 23 28 0 29 -26 38 -45
16z"/>
<path d="M3131 4577 c-17 -21 -3 -47 26 -47 21 0 24 4 21 27 -3 31 -29 41 -47
20z"/>
<path d="M142 4258 c-7 -7 -12 -18 -12 -25 0 -15 30 -32 48 -26 17 7 15 50 -4
57 -20 8 -18 8 -32 -6z"/>
<path d="M472 4258 c-7 -7 -12 -15 -12 -19 0 -15 31 -38 45 -33 21 9 26 32 9
49 -19 18 -26 19 -42 3z"/>
<path d="M813 4263 c-18 -6 -16 -50 1 -56 8 -3 22 1 33 8 28 21 -1 62 -34 48z"/>
<path d="M1143 4263 c-17 -6 -16 -38 0 -52 21 -17 56 12 41 35 -12 20 -23 25
-41 17z"/>
<path d="M1472 4258 c-17 -17 -15 -36 6 -47 13 -7 23 -6 30 1 17 17 15 45 -4
52 -20 8 -18 8 -32 -6z"/>
<path d="M1802 4258 c-7 -7 -12 -15 -12 -19 0 -15 31 -38 45 -33 21 9 26 32 9
49 -19 18 -26 19 -42 3z"/>
<path d="M2143 4263 c-18 -6 -16 -50 1 -56 8 -3 22 1 33 8 28 21 -1 62 -34 48z"/>
<path d="M2473 4263 c-17 -6 -16 -38 0 -52 21 -17 56 12 41 35 -12 20 -23 25
-41 17z"/>
<path d="M2802 4258 c-17 -17 -15 -36 6 -47 13 -7 23 -6 30 1 17 17 15 45 -4
52 -20 8 -18 8 -32 -6z"/>
<path d="M3132 4258 c-7 -7 -12 -18 -12 -25 0 -15 30 -32 48 -26 17 7 15 50
-4 57 -20 8 -18 8 -32 -6z"/>
<path d="M450 2555 l0 -95 -100 0 -101 0 3 -122 3 -123 98 -3 97 -3 0 -94 0
-95 125 0 125 0 0 95 0 95 95 0 95 0 0 125 0 125 -95 0 -95 0 0 95 0 95 -125
0 -125 0 0 -95z m220 -20 l0 -95 100 0 100 0 0 -100 0 -99 -97 -3 -98 -3 -3
-97 -3 -98 -99 0 -100 0 0 100 0 100 -95 0 -95 0 0 100 0 100 95 0 95 0 0 95
0 95 100 0 100 0 0 -95z"/>
<path d="M7055 2400 l-210 -210 58 -57 57 -58 155 155 155 155 153 -153 c84
-83 157 -152 162 -152 13 0 105 92 105 105 0 10 -411 425 -420 425 -3 0 -100
-94 -215 -210z m420 -10 l200 -200 -45 -45 -45 -45 -155 155 -155 155 -157
-157 -158 -158 -47 48 -48 47 200 200 c110 110 202 200 205 200 3 0 95 -90
205 -200z"/>
<path d="M7055 1780 l-210 -210 58 -57 57 -58 155 155 155 155 153 -153 c84
-83 157 -152 162 -152 13 0 105 92 105 105 0 10 -411 425 -420 425 -3 0 -100
-94 -215 -210z m420 -10 l200 -200 -48 -47 -47 -48 -155 155 -155 155 -155
-155 -155 -155 -47 48 -48 47 200 200 c110 110 202 200 205 200 3 0 95 -90
205 -200z"/>
<path d="M450 1675 l0 -95 -100 0 -101 0 3 -122 3 -123 98 -3 97 -3 0 -94 0
-95 125 0 125 0 0 95 0 95 95 0 95 0 0 125 0 125 -95 0 -95 0 0 95 0 95 -125
0 -125 0 0 -95z"/>
<path d="M7056 1161 c-115 -115 -207 -213 -205 -218 2 -4 28 -31 57 -58 l53
-49 155 155 154 154 158 -158 157 -157 53 53 c28 29 52 57 52 62 0 10 -411
425 -420 425 -3 0 -99 -94 -214 -209z m614 -215 c0 -14 -71 -86 -84 -86 -6 0
-79 69 -163 152 l-153 153 -155 -155 -155 -154 -45 44 -45 44 202 203 203 203
197 -197 c109 -109 198 -202 198 -207z"/>
<path d="M450 795 l0 -94 -97 -3 -98 -3 -3 -122 -3 -123 101 0 100 0 0 -95 0
-95 125 0 125 0 0 95 0 95 95 0 95 0 0 125 0 125 -95 0 -95 0 0 95 0 95 -125
0 -125 0 0 -95z m222 -22 l3 -98 98 -3 97 -3 0 -99 0 -100 -100 0 -100 0 0
-95 0 -95 -100 0 -100 0 0 95 0 95 -95 0 -95 0 0 100 0 100 95 0 95 0 0 100 0
100 100 0 99 0 3 -97z"/>
<path d="M7060 545 c-115 -115 -210 -214 -210 -220 0 -13 92 -105 105 -105 5
0 78 69 162 152 l153 153 153 -153 c84 -83 157 -152 162 -152 13 0 105 92 105
105 0 6 -94 104 -210 220 l-210 209 -210 -209z m610 -219 c0 -14 -71 -86 -84
-86 -6 0 -79 69 -163 152 l-153 153 -155 -155 -155 -154 -45 44 -45 44 202
203 203 203 197 -197 c109 -109 198 -202 198 -207z"/>
</g>
</svg>
