<?xml version="1.0" standalone="no"?>
<!DOCTYPE svg PUBLIC "-//W3C//DTD SVG 20010904//EN"
 "http://www.w3.org/TR/2001/REC-SVG-20010904/DTD/svg10.dtd">
<svg version="1.0" xmlns="http://www.w3.org/2000/svg"
 width="80.000000pt" height="120.000000pt" viewBox="0 0 80.000000 120.000000"
 preserveAspectRatio="xMidYMid meet">

<g transform="translate(0.000000,120.000000) scale(0.100000,-0.100000)"
fill="#000000" stroke="none">
<path d="M291 1144 c-143 -52 -230 -167 -239 -317 -7 -120 22 -195 196 -504
81 -144 151 -263 155 -265 13 -5 304 518 329 592 34 98 32 225 -4 303 -18 38
-32 56 -39 51 -8 -4 -9 -3 -5 5 10 15 -13 43 -27 34 -5 -3 -7 -1 -4 4 9 14
-29 47 -44 37 -8 -4 -10 -3 -5 5 5 7 -13 21 -51 39 -73 33 -193 41 -262 16z
m234 -92 c47 -24 106 -83 129 -129 21 -43 30 -110 22 -168 l-7 -46 -47 3 c-43
3 -47 5 -53 33 -5 22 -7 24 -8 8 -2 -42 9 -53 55 -53 24 0 44 -2 44 -4 0 -38
-247 -483 -260 -469 -13 13 -191 333 -222 398 -15 33 -28 65 -28 72 0 7 20 13
53 15 l52 3 9 84 c5 54 11 79 17 70 5 -9 9 17 9 66 -1 115 -15 75 -30 -82
l-13 -133 -52 0 c-51 0 -53 1 -59 31 -26 132 52 267 181 315 52 20 157 13 208
-14z"/>
<path d="M407 892 c-3 -15 -9 -67 -13 -115 -4 -48 -11 -90 -15 -93 -5 -3 -9 1
-9 8 0 7 -5 31 -12 53 -11 39 -11 39 -18 13 -5 -14 -11 -54 -15 -87 -4 -34
-11 -58 -16 -55 -5 3 -9 -23 -8 -58 1 -79 7 -65 29 70 17 109 20 111 41 32
l13 -45 7 55 c4 30 11 81 14 113 4 32 8 57 10 55 2 -2 9 -35 15 -73 6 -39 13
-83 17 -100 5 -27 7 -28 14 -10 11 28 11 47 0 41 -5 -3 -17 46 -26 109 -10 63
-19 115 -20 115 -1 0 -5 -12 -8 -28z"/>
<path d="M535 808 c-4 -31 -5 -63 -2 -70 3 -7 6 2 6 20 1 19 5 31 11 27 11 -7
12 18 1 55 -7 21 -9 15 -16 -32z"/>
<path d="M294 735 c0 -60 1 -84 3 -52 2 32 2 81 0 110 -2 29 -3 3 -3 -58z"/>
<path d="M481 772 c-7 -29 -10 -56 -7 -59 3 -4 6 3 6 15 0 11 4 23 9 26 5 3
12 -31 17 -77 6 -64 9 -75 15 -52 11 47 10 87 -1 80 -6 -4 -10 9 -11 32 -1 21
-4 49 -8 63 -6 22 -9 19 -20 -28z"/>
</g>
</svg>
